<?xml version="1.0" encoding="UTF-8"?>
<svg id="Layer_1" xmlns="http://www.w3.org/2000/svg" version="1.1" viewBox="0 0 469.7 108.8">
  <!-- Generator: Adobe Illustrator 30.3.0, SVG Export Plug-In . SVG Version: 2.1.3 Build 182)  -->
  <defs>
    <style>
      .st0 {
        fill: #6ca8ef;
      }

      .st1 {
        fill: #f9d319;
      }
    </style>
  </defs>
  <path class="st1" d="M218.1,67.8l6.7-14.1c0-.1,0-.2,0-.4l-8-18.5c-.1-.3-.4-.3-.7-.2l-12.6,9.6c-.1,0-.2.2-.2.4v6.2c.1,0,.1.2.2.2l8.7,12.4c.2.3,0,.7-.4.7l-28.8-1.6c-.4,0-.5-.5-.3-.7l9.1-9.8c0,0,.1-.2.1-.3l-3.6-32.8c0,0,0-.2-.1-.2l-10.5-11.1c-.3-.3,0-.7.3-.7l32.6-.4c.4,0,.6.4.3.7l-8.9,11c0,0-.1.2,0,.3l.8,16.8c0,.4.4.5.7.3l18.7-15.3c.2-.1.2-.4,0-.6l-5.7-9c-.2-.3,0-.7.4-.7l33.6.3c.4,0,.6.5.3.8l-25.2,18.3c-.2.1-.2.4-.1.6l13.1,20s0,0,0,0l11.8,10.3c.3.2.2.7-.2.7l-31.8,7.3c-.4,0-.6-.3-.5-.6Z"/>
  <path class="st1" d="M251.2,65.2l7.2-11.1c0,0,0-.2,0-.3l-2.2-31.6c0-.1,0-.2-.2-.3l-15.2-10.7c-.3-.2-.2-.8.2-.8l39.5-1.2c.4,0,.6.4.4.7l-7.5,11.4c0,0,0,.2,0,.2l-.3,34.4c0,.3.2.5.5.4l17.9-1.4c.1,0,.2,0,.3-.2l12.6-17.7c.2-.3.8-.2.8.3l-.6,25.8c0,.2-.2.4-.4.4l-52.6,2.4c-.4,0-.6-.4-.4-.7Z"/>
  <path class="st1" d="M340.3,11l14.4,7.3c.1,0,.2.2.2.4l.9,36.7c0,.1,0,.2-.1.3l-6.4,7.5c-.2.3,0,.7.3.7l21.4.5c.4,0,.6-.4.3-.7l-7.4-8.6c0,0-.1-.2-.1-.3l.8-16.8c0-.4.5-.6.8-.2l21.6,28.8c.2.3.7.2.8-.2l5-47.7c0-.1,0-.2.2-.3l9.3-7.6c.3-.3.1-.8-.3-.8l-27.6-1c-.4,0-.6.4-.3.7l10.6,11.2c0,0,.1.2.1.3l-1,16.1c0,.4-.5.6-.8.2l-20.5-27.5c0-.1-.2-.2-.4-.2l-21.7.3c-.5,0-.6.6-.2.8Z"/>
  <path class="st1" d="M62.6,55.4c-.1,3.4-1,6.4-2.6,8.8-1.6,2.5-3.6,4.5-6,6.1-2.4,1.6-5,2.8-7.9,3.7-2.9.8-5.8,1.3-8.6,1.4s-3.8,0-5.8-.2c-2-.2-4-.5-6-.9-2-.4-3.9-.9-5.8-1.6-1.8-.6-3.5-1.3-5-2.1,0,0-.2,0-.3,0l-13.9,3.6c-.3,0-.6-.2-.5-.5l5.4-22.4c0-.4.6-.5.8,0,1.4,2.7,3.1,4.9,5.2,6.7,2.4,2.1,5.1,3.7,8.1,5,3,1.2,6.2,2.1,9.5,2.6,3.4.5,6.8.6,10.1.4.6,0,1.3-.1,2.3-.3.9-.2,1.8-.5,2.7-.9.9-.4,1.6-.9,2.3-1.4.6-.6,1-1.2,1-2,0-.9-.2-1.5-.8-2-.5-.5-1.2-.8-2-1.1-.8-.2-1.6-.4-2.4-.4-.8,0-1.5,0-2.1-.2-2.5-.2-5.1-.4-7.9-.5-2.8,0-5.5-.3-8.2-.6-2.7-.3-5.2-.8-7.7-1.5-2.4-.7-4.5-1.7-6.4-3.1-1.8-1.4-3.3-3.1-4.4-5.3-1.1-2.2-1.7-4.9-1.7-8.3,0-3,.5-5.8,1.6-8.2,1.1-2.5,2.6-4.6,4.5-6.5,1.9-1.9,4.1-3.4,6.7-4.5,2.6-1.1,5.2-1.9,8.1-2.2,3.6-.4,7.3-.4,11.2-.2,3.8.3,7.3,1.2,10.4,2.9.2,0,.3,0,.5,0l10.6-8.3c.3-.2.7,0,.7.4l-1.8,24c0,.4-.5.5-.7.3-4.3-4.3-9.3-6-14.6-7.6-5.5-1.7-11.5-2.2-17.9-1.5-.6,0-1.3.2-2.1.4-.8.2-1.6.5-2.3.9-.7.4-1.3.9-1.8,1.5-.5.6-.7,1.3-.7,2.1,0,1.2.4,2,1.1,2.5.7.5,1.4.8,2.1.8,3,.3,6,.6,9.1.7,3.1.1,6.2.3,9.4.5l4,.2c2.8.2,5.5.7,8,1.4,2.6.7,4.8,1.9,6.8,3.4,2,1.5,3.5,3.4,4.6,5.7,1.1,2.3,1.6,5.1,1.4,8.3Z"/>
  <path class="st1" d="M52.6,5.8l12.7,9.4c0,0,.2.2.2.3.3,2.3,3.7,26.2,6,37.9,2.4,12.3,12.4,20.1,30.5,14.1,14.6-4.8,12.3-17.9,11.7-28.2-.5-10.3-1.2-23.9-1.3-25.4,0,0,0-.2,0-.3l7.1-10.4c.2-.3,0-.7-.4-.7l-28.4,2.8c-.4,0-.5.5-.3.7l11.2,10.3c0,0,.1.2.1.3.2,2.2,2.2,26.6,2,29.7-.2,3.2,0,10-5.6,11.3s-11.4-3.5-12.7-15c-1.3-10.9-3.7-31.5-4-33.6,0-.1,0-.2,0-.3l6.4-8c.2-.3,0-.8-.4-.7l-34.8,4.8c-.4,0-.5.5-.2.8Z"/>
  <path class="st1" d="M461.2,46.2l4.8,16.4c.1.4-.3.7-.6.5l-11.3-6.1c-.1,0-.3,0-.5,0-3.1,2.2-6.5,3.8-10.2,4.8-3.8,1-7.6,1.6-11.5,1.7s-8-.3-11.9-1.3c-4-1-7.6-2.7-10.8-4.9-3.2-2.2-5.9-4.9-8-8.3-2.1-3.3-3.2-7.2-3.4-11.6s.7-8.2,2.6-11.8c1.9-3.6,4.4-6.8,7.6-9.5,3.1-2.7,6.7-4.8,10.6-6.4,4-1.6,7.9-2.4,11.9-2.6s7.8.3,11.7,1.3c3.7,1,7.2,2.6,10.4,4.7.2.1.4,0,.5,0l7.5-7c.3-.3.8,0,.7.4l-2,22.1c0,.4-.5.5-.8.2-1.1-1.5-2.3-2.5-3.9-4-2-1.7-4.1-3.2-6.4-4.5-2.3-1.2-4.7-2.2-7.2-2.8-2.5-.6-5-.9-7.4-.8s-4.2.5-6.2,1.2c-1.9.7-3.6,1.9-5,3.4-1.4,1.5-2.5,3.5-3.3,5.9-.8,2.4-1.1,5.2-1,8.5s.6,4.8,1.5,7c.9,2.2,2.1,4.2,3.7,5.8,1.5,1.7,3.2,3,5.2,3.9,1.9,1,4,1.4,6.2,1.3,11-.3,13.1-4.1,14.7-5.6,0,0,.1-.2.1-.3v-2.7c-.1-.1-.2-.2-.2-.3l-10.5-9.5c-.3-.3-.1-.7.3-.8l30-1c.4,0,.6.4.4.7l-8.3,11.3c0,.1-.1.2,0,.4Z"/>
  <path class="st1" d="M311.5,60.9l6-10.2c0,0,0-.2,0-.2l-1.1-28.6c0-.1,0-.2-.2-.3l-11.9-10.2c-.3-.3-.1-.7.3-.8l32.8-1.9c.4,0,.6.4.4.7l-8,9.1c0,0-.1.2-.1.3v31.4c0,.1,0,.2,0,.3l9.1,9.5c.3.3,0,.7-.3.7l-26.6.8c-.3,0-.6-.4-.4-.7Z"/>
  <path class="st1" d="M172.8,37.2c-.7,1.7-2.2,4.8-4.3,7.6,0,0,0,0,0,0-2.3,2.5-5.2,4.3-8.4,5.3-6.6,2.2-14.5.6-19.8-3.7-1.8-1.5-3.3-3.3-4.5-5.4-1.2-2.1-1.9-4.6-2.1-7.5-.2-2.9,0-5.5.7-7.7.7-2.2,1.7-4,3.1-5.5,1.4-1.5,3-2.7,4.9-3.6,1.9-.9,4-1.4,6.2-1.7,2.4-.3,4.9-.2,7.5.3,2.6.5,5,1.3,7.4,2.5,2.4,1.2,4.5,2.8,6.3,4.7,1.4,1.4,2.1,1.9,2.7,3.1.2.4.8.2.8-.2l1.8-25.1c0-.4-.5-.7-.7-.3l-8.8,9.3c-.1.2-.4.2-.6.1-3.3-1.8-6.8-3-10.5-3.6-3.7-.6-7.3-.7-10.9-.1-3.9.6-7.6,1.8-11,3.7-3.4,1.8-6.3,4.1-8.8,6.7-2.4,2.6-4.3,5.5-5.6,8.8-1.3,3.2-1.8,6.6-1.6,10.2.2,2.6.7,5.1,1.6,7.3.9,2.2,2.1,4.3,3.5,6.1,8.6,11.1,25.3,14.8,38.9,10.8,2.8-.8,5.6-2,8.1-3.7.1,0,.3,0,.5,0l7.5,7.3c.3.3.7,0,.6-.3l-3.7-25.3c0-.4-.6-.5-.8-.2Z"/>
  <g>
    <path class="st0" d="M244.4,99.7l-.4-11.3c0-.3,0-.5-.2-.7s-.3-.3-.5-.3c-.2,0-.3-.1-.5-.2-.1-.1-.2-.2-.2-.4,0-.3.2-.5.6-.6,0,0,.3-.1.8-.3.4-.2.9-.4,1.3-.5.4-.2.8-.2,1-.3.4,0,.6.1.7.4.1.2.2.7.2,1.3l.3,6.8c1-1.1,2.3-1.6,3.7-1.7,1.7,0,3.1.4,4.1,1.5,1,1.1,1.5,2.5,1.6,4.2,0,2-.5,3.7-1.8,4.9-1.3,1.3-2.9,2-5,2-1.7,0-3.1-.3-4-1.1-1-.8-1.5-2-1.6-3.7ZM247.6,97v1.9c.2,2.8,1.1,4.1,2.8,4.1,1,0,1.7-.4,2.2-1.2.5-.8.8-1.9.7-3.4,0-1.6-.4-2.8-.9-3.6-.6-.9-1.3-1.3-2.1-1.2-.7,0-1.3.3-1.9.9-.6.6-.8,1.4-.8,2.6Z"/>
    <path class="st0" d="M257.9,91.8h3.7c.5-.2.8,0,.8.5,0,.2,0,.3-.2.4-.1.1-.3.3-.4.5-.1.2-.2.5-.2,1,0,.8.2,1.8.5,2.9.3,1.1.7,2.2,1.2,3.1.5,1,1.1,1.4,1.7,1.4.5,0,.9-.6,1.3-1.7.4-1.1.6-2.2.7-3.4.1-1.1.2-2,.2-2.6,0-.3-.1-.6-.4-.8-.2-.2-.5-.4-.7-.5-.2-.2-.4-.3-.4-.6,0-.3.2-.5.5-.5h3.3c.5-.1.7,0,.7.4,0,.2,0,.4-.2.5-.2.1-.4.4-.6.7-.2.3-.3.7-.4,1.2-.2,1.7-.4,3.5-.9,5.1-.4,1.7-1,3.2-1.7,4.6-.7,1.4-1.5,2.5-2.5,3.4-1,.9-2.1,1.3-3.2,1.4-.5,0-1,0-1.5-.3-.5-.2-.8-.5-.8-.9,0-.8.5-1.2,1.5-1.3.3,0,.6,0,1,.2.4.1.7.2.9.2.5,0,1.1-.4,1.7-1.1.7-.7,1.2-1.5,1.5-2.4-.5.2-.8.3-1,.3-.6,0-1.1,0-1.6-.3-.5-.2-.9-.5-1.3-.8-.3-.3-.7-.7-1-1.3-.3-.5-.6-1-.8-1.5-.2-.4-.4-1-.6-1.7-.2-.7-.3-1.2-.4-1.6,0-.4-.2-.9-.3-1.5-.1-.6-.2-1-.2-1.2,0-.3-.2-.5-.5-.7s-.4-.4-.4-.6c0-.4.2-.6.8-.7Z"/>
    <path class="st0" d="M284.7,102.9l-4.3.2c-.8,0-1.2-.2-1.2-.7,0-.2,0-.4.2-.6.1-.1.3-.2.5-.3.2,0,.3-.1.5-.3.1-.2.2-.4.2-.7l-.5-13.5c0-.3,0-.5-.3-.7-.2-.2-.3-.2-.5-.3-.2,0-.3-.1-.5-.2-.2-.1-.2-.3-.2-.5,0-.5.4-.8,1.1-.8l8.5-.3c4.2-.2,6.4,1.3,6.5,4.4,0,1-.3,1.9-1.1,2.6-.7.8-1.6,1.4-2.7,1.8h0c1.3,1.7,2.7,4,4,6.9.1.3.3.5.5.7.2.2.4.3.6.4.2,0,.3.2.5.3.1.1.2.3.2.6,0,.4-.2.7-.7.7l-5.7.2c-.4,0-.6-.2-.6-.7,0-.3.2-.6.6-.7.4-.2.6-.4.6-.7,0-.9-1.2-3-3.5-6.4l-3.3.7.2,5.5c0,.3,0,.5.3.7.2.2.3.2.5.3.2,0,.3.1.5.2.2.1.2.3.2.5,0,.5-.4.8-1.1.8ZM283.9,87.7l.2,5.5c.5,0,1-.2,1.3-.2.4,0,.8-.2,1.4-.3.6-.2,1.1-.3,1.5-.5.4-.2.8-.4,1.2-.7.4-.3.7-.6.9-1,.2-.4.3-.9.3-1.4,0-1-.4-1.8-1.1-2.3-.7-.5-1.8-.7-3.4-.6-1.6,0-2.4.6-2.3,1.7Z"/>
    <path class="st0" d="M310.5,101.9l-12.1.5c-.8,0-1.2-.2-1.2-.7,0-.2,0-.4.2-.6.1-.1.3-.2.5-.3.2,0,.3-.1.5-.3.1-.2.2-.4.2-.7l-.5-13.5c0-.3,0-.5-.3-.7-.2-.2-.3-.2-.5-.3-.2,0-.3-.1-.5-.2-.2-.1-.2-.3-.2-.5,0-.5.4-.8,1.1-.8l11.6-.4c.6,0,1,.1,1.2.4.2.3.3,1,.4,2.2,0,.5-.1.7-.4.8-.2,0-.3,0-.4-.1-.1,0-.3-.2-.5-.4-.2-.2-.5-.4-.8-.5-.4-.2-.9-.4-1.4-.4-.6,0-1.4,0-2.5,0-1.4,0-2.2.2-2.5.4-.3.2-.4.7-.4,1.5l.2,4.2,4.4-.2c.6,0,1-.2,1.4-.5.4-.3.6-.5.8-.5.3,0,.5.1.6.4.1.2.2.7.2,1.2,0,.8,0,1.3,0,1.5,0,.2-.2.4-.5.4-.2,0-.3,0-.4-.1-.1,0-.2-.2-.3-.3,0-.1-.3-.2-.5-.3-.3,0-.6-.1-1-.1l-4.4.2.2,4.5c0,1.3.2,2.1.4,2.4.2.3.6.4,1.4.4,1.9,0,3.4-.2,4.4-.4,1-.2,1.7-.5,2-1,.4-.6.8-1,1.2-1,.5,0,.7.2.8.8,0,1.1,0,1.9-.3,2.4-.3.4-.7.7-1.4.7Z"/>
    <path class="st0" d="M322.2,85.5l.5,13.4c0,.3.1.5.3.7.2.2.4.2.6.3.2,0,.4,0,.6.2.2.1.3.3.3.5,0,.5-.4.8-1.1.8l-4.6.2c-.8,0-1.2-.2-1.2-.7,0-.2,0-.4.2-.6.2-.1.3-.2.5-.3.2,0,.4-.1.5-.3.2-.2.2-.4.2-.7l-.5-13.4c0-.3-.1-.5-.3-.6-.2-.1-.5-.2-1-.1-.7,0-1.3.2-1.8.4-.5.2-.9.5-1.1.8-.2.3-.5.5-.8.8-.3.2-.5.3-.8.4-.4,0-.6-.2-.7-.7,0-.4.1-1.2.4-2.4,0-.3.2-.5.3-.6.1,0,.3-.2.6-.2l13.8-.5c.3,0,.5,0,.6.1.1,0,.2.3.3.5.3,1.2.5,1.9.5,2.4,0,.5-.2.8-.6.8-.2,0-.5,0-.8-.3-.3-.2-.6-.4-.8-.7-.3-.3-.7-.5-1.2-.7-.5-.2-1.2-.3-1.8-.3-.5,0-.8,0-1,.2-.2.1-.2.3-.2.7Z"/>
    <path class="st0" d="M330.4,82.6l4.6-.2c.3,0,.5,0,.7.2.2.1.3.3.3.5,0,.4-.2.7-.7.9-.4.2-.7.4-.7.6,0,.4-.2,1.6-.3,3.8,0,2.2-.1,3.9,0,5.2,0,2.2.6,3.7,1.5,4.7.9.9,2.2,1.3,3.9,1.3,3.3-.1,4.9-2.1,4.8-5.9,0-1.2-.2-2.8-.4-4.9-.2-2.1-.4-3.4-.5-4,0-.3-.2-.5-.4-.6-.2-.2-.4-.3-.6-.4-.2,0-.4-.2-.5-.3-.2-.1-.3-.3-.3-.5,0-.5.2-.8.7-.8h3.8c.6-.2.8,0,.9.5,0,.2,0,.4-.3.5-.2.1-.5.3-.7.5-.2.2-.3.5-.3.9,0,.1,0,.6.2,1.5.1.9.2,2,.4,3.3.1,1.3.2,2.4.3,3.3.2,5.5-2.4,8.4-7.9,8.6-2.4,0-4.4-.5-5.9-1.7-1.5-1.2-2.3-3-2.4-5.2,0-.8,0-2.3.1-4.7.1-2.4.2-3.9.2-4.7,0-.2,0-.4-.2-.6-.1-.1-.3-.2-.5-.3-.2,0-.3-.1-.5-.2-.1-.1-.2-.3-.2-.4,0-.5.3-.8,1-.8Z"/>
    <path class="st0" d="M354.6,100.3l-4.3.2c-.8,0-1.2-.2-1.2-.7,0-.2,0-.4.2-.6.1-.1.3-.2.5-.3.2,0,.3-.1.5-.3.1-.2.2-.4.2-.7l-.5-13.5c0-.3,0-.5-.3-.7-.2-.2-.3-.2-.5-.3-.2,0-.3-.1-.5-.2-.2-.1-.2-.3-.2-.5,0-.5.4-.8,1.1-.8l8.5-.3c4.2-.2,6.4,1.3,6.5,4.4,0,1-.3,1.9-1.1,2.6-.7.8-1.6,1.4-2.7,1.8h0c1.3,1.7,2.7,4,4,6.9.1.3.3.5.5.7.2.2.4.3.6.4.2,0,.3.2.5.3.1.1.2.3.2.6,0,.4-.2.7-.7.7l-5.7.2c-.4,0-.6-.2-.6-.7,0-.3.2-.6.6-.7.4-.2.6-.4.6-.7,0-.9-1.2-3-3.5-6.4l-3.3.7.2,5.5c0,.3,0,.5.3.7.2.2.3.2.5.3.2,0,.3.1.5.2.2.1.2.3.2.5,0,.5-.4.8-1.1.8ZM353.8,85.1l.2,5.5c.5,0,1-.2,1.3-.2.4,0,.8-.2,1.4-.3.6-.2,1.1-.3,1.5-.5.4-.2.8-.4,1.2-.7.4-.3.7-.6.9-1,.2-.4.3-.9.3-1.4,0-1-.4-1.8-1.1-2.3-.7-.5-1.8-.7-3.4-.6-1.6,0-2.4.6-2.3,1.7Z"/>
    <path class="st0" d="M371.6,99.6h-3.1c-.5.1-.8,0-1,0-.2-.1-.3-.3-.3-.6,0-.2,0-.4.3-.6.2-.1.4-.2.7-.3.3,0,.5-.1.7-.3.2-.2.3-.4.3-.7l-.5-13.5c0-.3-.1-.5-.3-.7-.2-.2-.4-.2-.7-.3-.3,0-.5,0-.7-.2-.2-.1-.3-.3-.3-.5,0-.5.3-.8.8-.8h3.7c.6-.2,1.5.5,2.6,1.8,1.1,1.3,3.7,4.7,7.7,10.1h0s-.4-9.9-.4-9.9c0-.3-.1-.5-.3-.7-.2-.2-.3-.2-.5-.3-.2,0-.4-.1-.5-.2-.2-.1-.3-.3-.3-.5,0-.5.4-.8,1.1-.8h2.6c.8-.1,1.2.1,1.2.6,0,.2,0,.4-.2.6s-.3.2-.5.3c-.2,0-.4.1-.5.3-.2.2-.2.4-.2.7l.6,14.6c0,.7,0,1.1-.1,1.3-.1.2-.4.3-1,.3-.3,0-.5,0-.7,0-.2,0-.3-.2-.4-.4l-10.8-14h0s.5,12.1.5,12.1c0,.3.1.5.3.7.2.2.4.2.6.3.2,0,.4,0,.6.2.2.1.3.3.3.5,0,.5-.4.8-1.1.8Z"/>
    <path class="st0" d="M395.6,96.2l-.5-13.5c0-.3,0-.5-.3-.7s-.3-.2-.5-.3c-.2,0-.3-.1-.5-.2-.2-.1-.2-.3-.2-.5,0-.5.4-.8,1.1-.8l8.9-.3c1.9,0,3.4.2,4.4.9,1,.7,1.5,1.6,1.5,2.8,0,2.4-1.3,4-4.3,4.9h0c1.6,0,2.9.4,4,1.2,1.1.8,1.7,1.8,1.7,3.1,0,1.8-.5,3.2-1.8,4.1-1.3.9-2.9,1.4-4.9,1.5l-8.9.3c-.8,0-1.2-.2-1.2-.7,0-.2,0-.4.2-.6.1-.1.3-.2.5-.3.2,0,.3-.1.5-.3.1-.2.2-.4.2-.7ZM398.9,83.6l.2,5c.5-.1.9-.2,1.1-.3.3,0,.6-.2,1.2-.4.5-.2,1-.3,1.3-.5.3-.2.7-.4,1.1-.6.4-.3.7-.5,1-.8.2-.3.4-.6.6-1,.2-.4.2-.8.2-1.3,0-1.5-1.4-2.2-4-2.1-1.2,0-1.9.2-2.2.4-.3.2-.4.8-.4,1.6ZM399.1,90.3l.2,4.7c0,.8.2,1.3.5,1.5.3.2.9.3,2,.3,1.7,0,3-.4,3.9-1,.9-.6,1.3-1.5,1.3-2.7,0-1.1-.5-2.1-1.3-2.7-.8-.7-1.7-1-2.4-1l-4.1,1Z"/>
    <path class="st0" d="M423.3,97.7l-4.3.2c-.8,0-1.2-.2-1.2-.7,0-.2,0-.4.2-.6.1-.1.3-.2.5-.3.2,0,.3-.1.5-.3.1-.2.2-.4.2-.7l-.2-4.8c-.8-.8-1.7-1.8-2.5-2.9-.9-1.1-1.5-2.1-2.1-2.9-.5-.8-1.2-1.8-2-3.1,0-.1-.3-.3-.8-.5-.5-.2-.7-.5-.7-.9,0-.5.2-.7.6-.7l5.6-.2c.5,0,.8.2.8.7,0,.3-.2.6-.6.8-.4.2-.6.3-.6.4,0,.4.5,1.2,1.4,2.7,1,1.4,2.1,2.9,3.3,4.5,2.7-4,4-6.4,4-7.2,0-.2,0-.4-.2-.5-.2-.1-.3-.2-.5-.3s-.3-.1-.5-.2c-.2-.1-.2-.3-.2-.5,0-.5.3-.7.9-.7h3.8c.4-.2.6,0,.7.5,0,.2,0,.4-.2.5-.1.1-.3.3-.6.5-.3.2-.5.5-.7.9-.3.7-.8,1.5-1.3,2.3-.5.8-.9,1.5-1.2,2.1-.3.5-.8,1.3-1.5,2.2-.6,1-1.1,1.6-1.2,1.9l.2,5.2c0,.3,0,.5.2.7.1.2.3.2.5.3.2,0,.4.1.5.2.1.1.2.3.2.5,0,.5-.4.8-1.1.8Z"/>
    <path class="st0" d="M448.6,88.2c-1.4,1.1-2.8,1.6-4,1.7-1.8,0-3.3-.4-4.4-1.4-1.1-1-1.7-2.3-1.7-3.9,0-1.9.5-3.5,1.8-4.7,1.3-1.2,2.9-1.9,4.8-1.9,2.4,0,4.2.6,5.5,1.9,1.3,1.4,2,3.3,2.1,5.7.1,3.2-.8,6-2.9,8.3-2,2.3-4.6,3.5-7.7,3.6-.7,0-1.1,0-1.4,0-.3,0-.4-.3-.4-.6,0-.3,0-.4.3-.6.2-.1.6-.2,1.1-.3,2-.3,3.6-1.1,4.8-2.5,1.2-1.4,1.9-3.1,2-5.2ZM445.4,88.2c1.1,0,1.9-.4,2.5-1.2.5-.8.8-1.8.7-3,0-.7-.1-1.4-.3-2.1-.2-.6-.5-1.2-1-1.7-.5-.5-1.1-.8-1.9-.7-.8,0-1.4.3-1.8.9-.5.6-.8,1.2-.9,1.8-.1.7-.2,1.4-.2,2.1,0,1.1.3,2,.8,2.8.5.8,1.2,1.2,2.2,1.2Z"/>
  </g>
</svg>